<svg width="86" height="103" viewBox="0 0 86 103" fill="none" xmlns="http://www.w3.org/2000/svg">
<ellipse rx="4.52806" ry="4.35036" transform="matrix(-1 0 0 1 80.5994 4.35036)" fill="black"/>
<ellipse rx="4.52806" ry="4.35036" transform="matrix(-1 0 0 1 80.5994 20.0115)" fill="black"/>
<ellipse rx="4.52806" ry="4.35036" transform="matrix(-1 0 0 1 80.5994 35.6726)" fill="black"/>
<ellipse rx="4.52806" ry="4.35036" transform="matrix(-1 0 0 1 80.5994 51.3342)" fill="black"/>
<ellipse rx="4.52806" ry="4.35036" transform="matrix(-1 0 0 1 80.5994 66.9954)" fill="black"/>
<ellipse rx="4.52806" ry="4.35036" transform="matrix(-1 0 0 1 80.5994 82.6565)" fill="black"/>
<ellipse rx="4.52806" ry="4.35036" transform="matrix(-1 0 0 1 80.5994 98.3181)" fill="black"/>
<ellipse rx="4.52806" ry="4.35036" transform="matrix(-1 0 0 1 61.5836 4.35036)" fill="black"/>
<ellipse rx="4.52806" ry="4.35036" transform="matrix(-1 0 0 1 61.5836 20.0115)" fill="black"/>
<ellipse rx="4.52806" ry="4.35036" transform="matrix(-1 0 0 1 61.5836 35.6726)" fill="black"/>
<ellipse rx="4.52806" ry="4.35036" transform="matrix(-1 0 0 1 61.5836 51.3342)" fill="black"/>
<ellipse rx="4.52806" ry="4.35036" transform="matrix(-1 0 0 1 61.5836 66.9954)" fill="black"/>
<ellipse rx="4.52806" ry="4.35036" transform="matrix(-1 0 0 1 61.5836 82.6565)" fill="black"/>
<ellipse rx="4.52806" ry="4.35036" transform="matrix(-1 0 0 1 61.5836 98.3181)" fill="black"/>
<ellipse rx="4.52806" ry="4.35036" transform="matrix(-1 0 0 1 42.5637 4.35036)" fill="black"/>
<ellipse rx="4.52806" ry="4.35036" transform="matrix(-1 0 0 1 42.5637 20.0115)" fill="black"/>
<ellipse rx="4.52806" ry="4.35036" transform="matrix(-1 0 0 1 42.5637 35.6726)" fill="black"/>
<ellipse rx="4.52806" ry="4.35036" transform="matrix(-1 0 0 1 42.5637 51.3342)" fill="black"/>
<ellipse rx="4.52806" ry="4.35036" transform="matrix(-1 0 0 1 42.5637 66.9954)" fill="black"/>
<ellipse rx="4.52806" ry="4.35036" transform="matrix(-1 0 0 1 42.5637 82.6565)" fill="black"/>
<ellipse rx="4.52806" ry="4.35036" transform="matrix(-1 0 0 1 42.5637 98.3181)" fill="black"/>
<ellipse rx="4.52806" ry="4.35036" transform="matrix(-1 0 0 1 23.5438 4.35036)" fill="black"/>
<ellipse rx="4.52806" ry="4.35036" transform="matrix(-1 0 0 1 23.5438 20.0115)" fill="black"/>
<ellipse rx="4.52806" ry="4.35036" transform="matrix(-1 0 0 1 23.5438 35.6726)" fill="black"/>
<ellipse rx="4.52806" ry="4.35036" transform="matrix(-1 0 0 1 23.5438 51.3342)" fill="black"/>
<ellipse rx="4.52806" ry="4.35036" transform="matrix(-1 0 0 1 23.5438 66.9954)" fill="black"/>
<ellipse rx="4.52806" ry="4.35036" transform="matrix(-1 0 0 1 23.5438 82.6565)" fill="black"/>
<ellipse rx="4.52806" ry="4.35036" transform="matrix(-1 0 0 1 23.5438 98.3181)" fill="black"/>
<ellipse rx="4.52806" ry="4.35036" transform="matrix(-1 0 0 1 4.52803 4.35036)" fill="black"/>
<ellipse rx="4.52806" ry="4.35036" transform="matrix(-1 0 0 1 4.52803 20.0115)" fill="black"/>
<ellipse rx="4.52806" ry="4.35036" transform="matrix(-1 0 0 1 4.52803 35.6726)" fill="black"/>
<ellipse rx="4.52806" ry="4.35036" transform="matrix(-1 0 0 1 4.52803 51.3342)" fill="black"/>
<ellipse rx="4.52806" ry="4.35036" transform="matrix(-1 0 0 1 4.52803 66.9954)" fill="black"/>
<ellipse rx="4.52806" ry="4.35036" transform="matrix(-1 0 0 1 4.52803 82.6565)" fill="black"/>
<ellipse rx="4.52806" ry="4.35036" transform="matrix(-1 0 0 1 4.52803 98.3181)" fill="black"/>
</svg>
